[Header]
FileType HTR
DataType HTRS
FileVersion 1
NumSegments 64
NumFrames 4
DataFrameRate 30
EulerRotationOrder ZYX
CalibrationUnits mm
RotationUnits Degrees
GlobalAxisofGravity Y
BoneLengthAxis Y
ScaleFactor 1.0
[SegmentNames&Hierarchy]
Hips	GLOBAL
Spine	Hips
Spine1	Spine
Spine2	Spine1
Neck	Spine2
Head	Neck
LeftEye	Head
RightEye	Head
LeftShoulder	Spine2
LeftArm	LeftShoulder
LeftForeArm	LeftArm
LeftHand	LeftForeArm
LeftHandThumb1	LeftHand
LeftHandThumb2	LeftHandThumb1
LeftHandThumb3	LeftHandThumb2
LeftHandThumb4	LeftHandThumb3
LeftHandIndex1	LeftHand
LeftHandIndex2	LeftHandIndex1
LeftHandIndex3	LeftHandIndex2
LeftHandIndex4	LeftHandIndex3
LeftHandMiddle1	LeftHand
LeftHandMiddle2	LeftHandMiddle1
LeftHandMiddle3	LeftHandMiddle2
LeftHandMiddle4	LeftHandMiddle3
LeftHandRing1	LeftHand
LeftHandRing2	LeftHandRing1
LeftHandRing3	LeftHandRing2
LeftHandRing4	LeftHandRing3
LeftHandPinky1	LeftHand
LeftHandPinky2	LeftHandPinky1
LeftHandPinky3	LeftHandPinky2
LeftHandPinky4	LeftHandPinky3
RightShoulder	Spine2
RightArm	RightShoulder
RightForeArm	RightArm
RightHand	RightForeArm
RightHandPinky1	RightHand
RightHandPinky2	RightHandPinky1
RightHandPinky3	RightHandPinky2
RightHandPinky4	RightHandPinky3
RightHandRing1	RightHand
RightHandRing2	RightHandRing1
RightHandRing3	RightHandRing2
RightHandRing4	RightHandRing3
RightHandMiddle1	RightHand
RightHandMiddle2	RightHandMiddle1
RightHandMiddle3	RightHandMiddle2
RightHandMiddle4	RightHandMiddle3
RightHandIndex1	RightHand
RightHandIndex2	RightHandIndex1
RightHandIndex3	RightHandIndex2
RightHandIndex4	RightHandIndex3
RightHandThumb1	RightHand
RightHandThumb2	RightHandThumb1
RightHandThumb3	RightHandThumb2
RightHandThumb4	RightHandThumb3
LeftUpLeg	Hips
LeftLeg	LeftUpLeg
LeftFoot	LeftLeg
LeftToeBase	LeftFoot
RightUpLeg	Hips
RightLeg	RightUpLeg
RightFoot	RightLeg
RightToeBase	RightFoot
[BasePosition]
Hips	0	0	0	0	0	0	1
Spine	0	0	0	0	0	0	1
Spine1	0	0	0	0	0	0	1
Spine2	0	0	0	0	0	0	1
Neck	0	0	0	0	0	0	1
Head	0	0	0	0	0	0	1
LeftEye	0	0	0	0	0	0	1
RightEye	0	0	0	0	0	0	1
LeftShoulder	0	0	0	0	0	0	1
LeftArm	0	0	0	0	0	0	1
LeftForeArm	0	0	0	0	0	0	1
LeftHand	0	0	0	0	0	0	1
LeftHandThumb1	0	0	0	0	0	0	1
LeftHandThumb2	0	0	0	0	0	0	1
LeftHandThumb3	0	0	0	0	0	0	1
LeftHandThumb4	0	0	0	0	0	0	1
LeftHandIndex1	0	0	0	0	0	0	1
LeftHandIndex2	0	0	0	0	0	0	1
LeftHandIndex3	0	0	0	0	0	0	1
LeftHandIndex4	0	0	0	0	0	0	1
LeftHandMiddle1	0	0	0	0	0	0	1
LeftHandMiddle2	0	0	0	0	0	0	1
LeftHandMiddle3	0	0	0	0	0	0	1
LeftHandMiddle4	0	0	0	0	0	0	1
LeftHandRing1	0	0	0	0	0	0	1
LeftHandRing2	0	0	0	0	0	0	1
LeftHandRing3	0	0	0	0	0	0	1
LeftHandRing4	0	0	0	0	0	0	1
LeftHandPinky1	0	0	0	0	0	0	1
LeftHandPinky2	0	0	0	0	0	0	1
LeftHandPinky3	0	0	0	0	0	0	1
LeftHandPinky4	0	0	0	0	0	0	1
RightShoulder	0	0	0	0	0	0	1
RightArm	0	0	0	0	0	0	1
RightForeArm	0	0	0	0	0	0	1
RightHand	0	0	0	0	0	0	1
RightHandPinky1	0	0	0	0	0	0	1
RightHandPinky2	0	0	0	0	0	0	1
RightHandPinky3	0	0	0	0	0	0	1
RightHandPinky4	0	0	0	0	0	0	1
RightHandRing1	0	0	0	0	0	0	1
RightHandRing2	0	0	0	0	0	0	1
RightHandRing3	0	0	0	0	0	0	1
RightHandRing4	0	0	0	0	0	0	1
RightHandMiddle1	0	0	0	0	0	0	1
RightHandMiddle2	0	0	0	0	0	0	1
RightHandMiddle3	0	0	0	0	0	0	1
RightHandMiddle4	0	0	0	0	0	0	1
RightHandIndex1	0	0	0	0	0	0	1
RightHandIndex2	0	0	0	0	0	0	1
RightHandIndex3	0	0	0	0	0	0	1
RightHandIndex4	0	0	0	0	0	0	1
RightHandThumb1	0	0	0	0	0	0	1
RightHandThumb2	0	0	0	0	0	0	1
RightHandThumb3	0	0	0	0	0	0	1
RightHandThumb4	0	0	0	0	0	0	1
LeftUpLeg	0	0	0	0	0	0	1
LeftLeg	0	0	0	0	0	0	1
LeftFoot	0	0	0	0	0	0	1
LeftToeBase	0	0	0	0	0	0	1
RightUpLeg	0	0	0	0	0	0	1
RightLeg	0	0	0	0	0	0	1
RightFoot	0	0	0	0	0	0	1
RightToeBase	0	0	0	0	0	0	1
[Hips]
220	0.2983898222	1034.170166	13.77613449	-3.516613007	-5.652174473	-3.178472996	1.0
221	0.547577858	1034.175415	13.59105206	-3.524380445	-5.653006554	-3.186195135	1.0
222	0.7661911845	1034.185425	13.44698811	-3.538748026	-5.648542881	-3.194059849	1.0
223	0.9691672921	1034.19873	13.3347435	-3.556419849	-5.637819767	-3.203237295	1.0
[Spine]
220	0	101.8159943	1.315000057	3.654791355	1.482113838	2.957721233	1.0
221	0	101.8159943	1.315000057	3.629858494	1.475019813	2.948121309	1.0
222	0	101.8159943	1.315000057	3.606473446	1.468178511	2.938942194	1.0
223	0	101.8159943	1.315000057	3.584449291	1.461564541	2.930368662	1.0
[Spine1]
220	0	100.8349991	-10.00800037	1.248923302	0.351288408	1.618151546	1.0
221	0	100.8349991	-10.00800037	1.24154532	0.3481691182	1.614887238	1.0
222	0	100.8349991	-10.00800037	1.234605789	0.3451990485	1.611687064	1.0
223	0	100.8349991	-10.00800037	1.228050947	0.3423566818	1.608548284	1.0
[Spine2]
220	0	91	-13.73399925	1.223668337	0.3742980361	1.621002078	1.0
221	0	91	-13.73399925	1.216283441	0.3711707592	1.617787838	1.0
222	0	91	-13.73399925	1.209336758	0.3681866229	1.614634514	1.0
223	0	91	-13.73399925	1.202777505	0.3653321564	1.611539006	1.0
[Neck]
220	0	166.7169952	-25.16200066	5.651301861	-0.1923740208	0.5309919119	1.0
221	0	166.7169952	-25.16200066	5.643960476	-0.1883269846	0.5276349783	1.0
222	0	166.7169952	-25.16200066	5.637463093	-0.1843852848	0.5241753459	1.0
223	0	166.7169952	-25.16200066	5.631690025	-0.180538848	0.5206314921	1.0
[Head]
220	0	96.17900085	16.84999847	-7.962322235	1.207270861	-0.1867224276	1.0
221	0	96.17900085	16.84999847	-7.918222427	1.21933341	-0.1944947541	1.0
222	0	96.17900085	16.84999847	-7.877653122	1.230695486	-0.2016754001	1.0
223	0	96.17900085	16.84999847	-7.840078354	1.241442919	-0.2083449811	1.0
[LeftEye]
220	30.6760006	64.09500122	92.83599854	0	0	0	1.0
221	30.6760006	64.09500122	92.83599854	0	0	0	1.0
222	30.6760006	64.09500122	92.83599854	0	0	0	1.0
223	30.6760006	64.09500122	92.83599854	0	0	0	1.0
[RightEye]
220	-30.6760006	64.09500122	92.83499908	0	0	0	1.0
221	-30.6760006	64.09500122	92.83499908	0	0	0	1.0
222	-30.6760006	64.09500122	92.83499908	0	0	0	1.0
223	-30.6760006	64.09500122	92.83499908	0	0	0	1.0
[LeftShoulder]
220	45.70400238	109.4599991	-26.28000069	4.86971283	-16.88494301	-12.97835827	1.0
221	45.70400238	109.4599991	-26.28000069	4.868280888	-16.86652565	-12.97779369	1.0
222	45.70400238	109.4599991	-26.28000069	4.867268562	-16.8500309	-12.97878551	1.0
223	45.70400238	109.4599991	-26.28000069	4.866613865	-16.83519554	-12.98109722	1.0
[LeftArm]
220	105.923996	-5.24600029	-22.32099915	20.11395836	-3.276176453	-71.39154053	1.0
221	105.923996	-5.24600029	-22.32099915	20.11120033	-3.26314044	-71.38389587	1.0
222	105.923996	-5.24600029	-22.32099915	20.10890961	-3.250656843	-71.3747406	1.0
223	105.923996	-5.24600029	-22.32099915	20.1070385	-3.238672733	-71.36438751	1.0
[LeftForeArm]
220	278.414978	-0.0009999999311	0	-6.176655006e-06	-1.530654907	-0.0002089307382	1.0
221	278.414978	-0.0009999999311	0	-1.377805461e-06	-1.527672529	-0.0002195771522	1.0
222	278.414978	-0.0009999999311	0	1.17972595e-05	-1.524650097	-0.0002193171531	1.0
223	278.414978	-0.0009999999311	0	1.313543521e-06	-1.521577954	-0.0002027572191	1.0
[LeftHand]
220	283.2879944	0	0	-33.092659	-4.694752693	-4.403906345	1.0
221	283.2879944	0	0	-33.06830597	-4.680572033	-4.428483009	1.0
222	283.2879944	0	0	-33.04641342	-4.667224407	-4.449931145	1.0
223	283.2879944	0	0	-33.02664948	-4.65459013	-4.46865654	1.0
[LeftHandThumb1]
220	24.6609993	-15.75	26.8239994	-0.4889889657	2.201390743	4.818541527	1.0
221	24.6609993	-15.75	26.8239994	-0.4889889657	2.201390743	4.818541527	1.0
222	24.6609993	-15.75	26.8239994	-0.4889889657	2.201390743	4.818541527	1.0
223	24.6609993	-15.75	26.8239994	-0.4889889657	2.201390743	4.818541527	1.0
[LeftHandThumb2]
220	32.29800034	-18.64699936	18.64699936	19.88581276	19.96446037	23.26738167	1.0
221	32.29800034	-18.64699936	18.64699936	19.88581276	19.96446037	23.26738167	1.0
222	32.29800034	-18.64699936	18.64699936	19.88581276	19.96446037	23.26738167	1.0
223	32.29800034	-18.64699936	18.64699936	19.88581276	19.96446037	23.26738167	1.0
[LeftHandThumb3]
220	26.52600098	-15.31499958	15.31499958	-13.14535904	5.551738262	7.967928886	1.0
221	26.52600098	-15.31499958	15.31499958	-13.14535904	5.551738262	7.967928886	1.0
222	26.52600098	-15.31499958	15.31499958	-13.14535904	5.551738262	7.967928886	1.0
223	26.52600098	-15.31499958	15.31499958	-13.14535904	5.551738262	7.967928886	1.0
[LeftHandThumb4]
220	19.54599953	-11.28499985	11.28499985	0	0	0	1.0
221	19.54599953	-11.28499985	11.28499985	0	0	0	1.0
222	19.54599953	-11.28499985	11.28499985	0	0	0	1.0
223	19.54599953	-11.28499985	11.28499985	0	0	0	1.0
[LeftHandIndex1]
220	91.09299469	-5.170999527	22.60099792	0.1480516791	-0.9618676901	-7.594518185	1.0
221	91.09299469	-5.170999527	22.60099792	0.1480516791	-0.9618676901	-7.594518185	1.0
222	91.09299469	-5.170999527	22.60099792	0.1480516791	-0.9618676901	-7.594518185	1.0
223	91.09299469	-5.170999527	22.60099792	0.1480516791	-0.9618676901	-7.594518185	1.0
[LeftHandIndex2]
220	36.76399994	0	0	-0.2667043209	1.745171905	-17.37646866	1.0
221	36.76399994	0	0	-0.2667043209	1.745171905	-17.37646866	1.0
222	36.76399994	0	0	-0.2667043209	1.745171905	-17.37646866	1.0
223	36.76399994	0	0	-0.2667043209	1.745171905	-17.37646866	1.0
[LeftHandIndex3]
220	28.83100128	0	0	-0.05742863193	0.817338407	-8.038370132	1.0
221	28.83100128	0	0	-0.05742863193	0.817338407	-8.038370132	1.0
222	28.83100128	0	0	-0.05742863193	0.817338407	-8.038370132	1.0
223	28.83100128	0	0	-0.05742863193	0.817338407	-8.038370132	1.0
[LeftHandIndex4]
220	23.92700005	0	0	0	0	0	1.0
221	23.92700005	0	0	0	0	0	1.0
222	23.92700005	0	0	0	0	0	1.0
223	23.92700005	0	0	0	0	0	1.0
[LeftHandMiddle1]
220	95.33399963	0	0	-0.7942916155	2.538622379	-15.71737862	1.0
221	95.33399963	0	0	-0.7942916155	2.538622379	-15.71737862	1.0
222	95.33399963	0	0	-0.7942916155	2.538622379	-15.71737862	1.0
223	95.33399963	0	0	-0.7942916155	2.538622379	-15.71737862	1.0
[LeftHandMiddle2]
220	36.98199844	0	0	-0.267610997	1.748071074	-17.40625954	1.0
221	36.98199844	0	0	-0.267610997	1.748071074	-17.40625954	1.0
222	36.98199844	0	0	-0.267610997	1.748071074	-17.40625954	1.0
223	36.98199844	0	0	-0.267610997	1.748071074	-17.40625954	1.0
[LeftHandMiddle3]
220	29.50900078	0	0	-0.2992140949	1.84580946	-18.41413307	1.0
221	29.50900078	0	0	-0.2992140949	1.84580946	-18.41413307	1.0
222	29.50900078	0	0	-0.2992140949	1.84580946	-18.41413307	1.0
223	29.50900078	0	0	-0.2992140949	1.84580946	-18.41413307	1.0
[LeftHandMiddle4]
220	28.3390007	0	0	0	0	0	1.0
221	28.3390007	0	0	0	0	0	1.0
222	28.3390007	0	0	0	0	0	1.0
223	28.3390007	0	0	0	0	0	1.0
[LeftHandRing1]
220	91.04499817	-0.4390000105	-18.65100098	-1.184956431	3.436642885	-21.16632462	1.0
221	91.04499817	-0.4390000105	-18.65100098	-1.184956431	3.436642885	-21.16632462	1.0
222	91.04499817	-0.4390000105	-18.65100098	-1.184956431	3.436642885	-21.16632462	1.0
223	91.04499817	-0.4390000105	-18.65100098	-1.184956431	3.436642885	-21.16632462	1.0
[LeftHandRing2]
220	31.54000092	0	0	-0.3849357069	2.085560799	-20.91281319	1.0
221	31.54000092	0	0	-0.3849357069	2.085560799	-20.91281319	1.0
222	31.54000092	0	0	-0.3849357069	2.085560799	-20.91281319	1.0
223	31.54000092	0	0	-0.3849357069	2.085560799	-20.91281319	1.0
[LeftHandRing3]
220	29.37700081	0	0	-0.2818065584	1.792707562	-17.86576271	1.0
221	29.37700081	0	0	-0.2818065584	1.792707562	-17.86576271	1.0
222	29.37700081	0	0	-0.2818065584	1.792707562	-17.86576271	1.0
223	29.37700081	0	0	-0.2818065584	1.792707562	-17.86576271	1.0
[LeftHandRing4]
220	26.47500038	0	0	0	0	0	1.0
221	26.47500038	0	0	0	0	0	1.0
222	26.47500038	0	0	0	0	0	1.0
223	26.47500038	0	0	0	0	0	1.0
[LeftHandPinky1]
220	80.77799988	-4.887000084	-38.06099701	-1.708467126	5.355370045	-27.1653862	1.0
221	80.77799988	-4.887000084	-38.06099701	-1.708467126	5.355370045	-27.1653862	1.0
222	80.77799988	-4.887000084	-38.06099701	-1.708467126	5.355370045	-27.1653862	1.0
223	80.77799988	-4.887000084	-38.06099701	-1.708467126	5.355370045	-27.1653862	1.0
[LeftHandPinky2]
220	36	0	0	-0.2676221728	1.748113751	-17.40663528	1.0
221	36	0	0	-0.2676221728	1.748113751	-17.40663528	1.0
222	36	0	0	-0.2676221728	1.748113751	-17.40663528	1.0
223	36	0	0	-0.2676221728	1.748113751	-17.40663528	1.0
[LeftHandPinky3]
220	21.14200211	0	0	-0.2408525199	1.660349369	-16.50663185	1.0
221	21.14200211	0	0	-0.2408525199	1.660349369	-16.50663185	1.0
222	21.14200211	0	0	-0.2408525199	1.660349369	-16.50663185	1.0
223	21.14200211	0	0	-0.2408525199	1.660349369	-16.50663185	1.0
[LeftHandPinky4]
220	19.75699997	0	0	0	0	0	1.0
221	19.75699997	0	0	0	0	0	1.0
222	19.75699997	0	0	0	0	0	1.0
223	19.75699997	0	0	0	0	0	1.0
[RightShoulder]
220	-45.70000076	109.4620056	-26.28000069	5.202595234	14.83034992	15.47868156	1.0
221	-45.70000076	109.4620056	-26.28000069	5.199507713	14.80733585	15.47206974	1.0
222	-45.70000076	109.4620056	-26.28000069	5.1967206	14.78538513	15.46670246	1.0
223	-45.70000076	109.4620056	-26.28000069	5.194197655	14.76439285	15.46239567	1.0
[RightArm]
220	-105.9280014	-5.248000145	-22.32099915	30.15913773	2.289874792	62.6755867	1.0
221	-105.9280014	-5.248000145	-22.32099915	30.17558479	2.300885677	62.67450714	1.0
222	-105.9280014	-5.248000145	-22.32099915	30.19029808	2.309909821	62.67324448	1.0
223	-105.9280014	-5.248000145	-22.32099915	30.2034893	2.31725359	62.67182541	1.0
[RightForeArm]
220	-278.414978	0	0	-2.343918595e-06	6.593026638	5.317446039e-08	1.0
221	-278.414978	0	0	1.574797011e-06	6.594948292	-8.312565114e-06	1.0
222	-278.414978	0	0	8.370488104e-06	6.597251415	-1.181351854e-05	1.0
223	-278.414978	0	0	3.002455969e-06	6.599888325	-4.869829354e-06	1.0
[RightHand]
220	-283.2879944	0	0.0009999999311	-20.09453201	1.660781026	6.033331871	1.0
221	-283.2879944	0	0.0009999999311	-20.09062767	1.662438631	6.054646969	1.0
222	-283.2879944	0	0.0009999999311	-20.08715248	1.665134668	6.076366425	1.0
223	-283.2879944	0	0.0009999999311	-20.08402824	1.668724179	6.098395824	1.0
[RightHandPinky1]
220	-80.76699829	-4.885000229	-38.06000137	-1.507175922	-4.696118355	26.50587463	1.0
221	-80.76699829	-4.885000229	-38.06000137	-1.507175922	-4.696118355	26.50587463	1.0
222	-80.76699829	-4.885000229	-38.06000137	-1.507175922	-4.696118355	26.50587463	1.0
223	-80.76699829	-4.885000229	-38.06000137	-1.507175922	-4.696118355	26.50587463	1.0
[RightHandPinky2]
220	-36	0	0.0009999999311	-0.2127676606	-1.388874292	17.43785858	1.0
221	-36	0	0.0009999999311	-0.2127676606	-1.388874292	17.43785858	1.0
222	-36	0	0.0009999999311	-0.2127676606	-1.388874292	17.43785858	1.0
223	-36	0	0.0009999999311	-0.2127676606	-1.388874292	17.43785858	1.0
[RightHandPinky3]
220	-21.14200211	0	0	-0.1919144988	-1.32059598	16.53641129	1.0
221	-21.14200211	0	0	-0.1919144988	-1.32059598	16.53641129	1.0
222	-21.14200211	0	0	-0.1919144988	-1.32059598	16.53641129	1.0
223	-21.14200211	0	0	-0.1919144988	-1.32059598	16.53641129	1.0
[RightHandPinky4]
220	-19.75699997	0	0	0	0	0	1.0
221	-19.75699997	0	0	0	0	0	1.0
222	-19.75699997	0	0	0	0	0	1.0
223	-19.75699997	0	0	0	0	0	1.0
[RightHandRing1]
220	-91.03599548	-0.4390000105	-18.65100098	-1.045235753	-2.883111477	20.47788429	1.0
221	-91.03599548	-0.4390000105	-18.65100098	-1.045235753	-2.883111477	20.47788429	1.0
222	-91.03599548	-0.4390000105	-18.65100098	-1.045235753	-2.883111477	20.47788429	1.0
223	-91.03599548	-0.4390000105	-18.65100098	-1.045235753	-2.883111477	20.47788429	1.0
[RightHandRing2]
220	-31.54000092	0	0	-0.3066971898	-1.658752441	20.94926834	1.0
221	-31.54000092	0	0	-0.3066971898	-1.658752441	20.94926834	1.0
222	-31.54000092	0	0	-0.3066971898	-1.658752441	20.94926834	1.0
223	-31.54000092	0	0	-0.3066971898	-1.658752441	20.94926834	1.0
[RightHandRing3]
220	-29.37700081	0	0	-0.2245407403	-1.425854325	17.89771652	1.0
221	-29.37700081	0	0	-0.2245407403	-1.425854325	17.89771652	1.0
222	-29.37700081	0	0	-0.2245407403	-1.425854325	17.89771652	1.0
223	-29.37700081	0	0	-0.2245407403	-1.425854325	17.89771652	1.0
[RightHandRing4]
220	-26.47500038	0	0	0	0	0	1.0
221	-26.47500038	0	0	0	0	0	1.0
222	-26.47500038	0	0	0	0	0	1.0
223	-26.47500038	0	0	0	0	0	1.0
[RightHandMiddle1]
220	-95.32500458	0	0	-0.7017197609	-2.087752104	15.0152874	1.0
221	-95.32500458	0	0	-0.7017197609	-2.087752104	15.0152874	1.0
222	-95.32500458	0	0	-0.7017197609	-2.087752104	15.0152874	1.0
223	-95.32500458	0	0	-0.7017197609	-2.087752104	15.0152874	1.0
[RightHandMiddle2]
220	-36.98199844	0	0	-0.213228479	-1.390354872	17.43750381	1.0
221	-36.98199844	0	0	-0.213228479	-1.390354872	17.43750381	1.0
222	-36.98199844	0	0	-0.213228479	-1.390354872	17.43750381	1.0
223	-36.98199844	0	0	-0.213228479	-1.390354872	17.43750381	1.0
[RightHandMiddle3]
220	-29.50900078	0	0	-0.2384106964	-1.470119596	18.44692802	1.0
221	-29.50900078	0	0	-0.2384106964	-1.470119596	18.44692802	1.0
222	-29.50900078	0	0	-0.2384106964	-1.470119596	18.44692802	1.0
223	-29.50900078	0	0	-0.2384106964	-1.470119596	18.44692802	1.0
[RightHandMiddle4]
220	-28.3390007	0	0.0009999999311	0	0	0	1.0
221	-28.3390007	0	0.0009999999311	0	0	0	1.0
222	-28.3390007	0	0.0009999999311	0	0	0	1.0
223	-28.3390007	0	0.0009999999311	0	0	0	1.0
[RightHandIndex1]
220	-91.08300018	-5.167999744	22.60099792	0.1884763837	1.25192976	6.825599194	1.0
221	-91.08300018	-5.167999744	22.60099792	0.1884763837	1.25192976	6.825599194	1.0
222	-91.08300018	-5.167999744	22.60099792	0.1884763837	1.25192976	6.825599194	1.0
223	-91.08300018	-5.167999744	22.60099792	0.1884763837	1.25192976	6.825599194	1.0
[RightHandIndex2]
220	-36.76399994	0	0	-0.2125098109	-1.388050556	17.40767097	1.0
221	-36.76399994	0	0	-0.2125098109	-1.388050556	17.40767097	1.0
222	-36.76399994	0	0	-0.2125098109	-1.388050556	17.40767097	1.0
223	-36.76399994	0	0	-0.2125098109	-1.388050556	17.40767097	1.0
[RightHandIndex3]
220	-28.83100128	0	0	-0.04576345533	-0.650116384	8.053516388	1.0
221	-28.83100128	0	0	-0.04576345533	-0.650116384	8.053516388	1.0
222	-28.83100128	0	0	-0.04576345533	-0.650116384	8.053516388	1.0
223	-28.83100128	0	0	-0.04576345533	-0.650116384	8.053516388	1.0
[RightHandIndex4]
220	-23.92700005	0	0	0	0	0	1.0
221	-23.92700005	0	0	0	0	0	1.0
222	-23.92700005	0	0	0	0	0	1.0
223	-23.92700005	0	0	0	0	0	1.0
[RightHandThumb1]
220	-24.64799881	-15.72700024	26.82600021	-1.658462524	-0.2891407609	-4.221328735	1.0
221	-24.64799881	-15.72700024	26.82600021	-1.658462524	-0.2891407609	-4.221328735	1.0
222	-24.64799881	-15.72700024	26.82600021	-1.658462524	-0.2891407609	-4.221328735	1.0
223	-24.64799881	-15.72700024	26.82600021	-1.658462524	-0.2891407609	-4.221328735	1.0
[RightHandThumb2]
220	-32.29800034	-18.64699936	18.64699936	22.25259209	-23.88967514	-24.282444	1.0
221	-32.29800034	-18.64699936	18.64699936	22.25259209	-23.88967514	-24.282444	1.0
222	-32.29800034	-18.64699936	18.64699936	22.25259209	-23.88967514	-24.282444	1.0
223	-32.29800034	-18.64699936	18.64699936	22.25259209	-23.88967514	-24.282444	1.0
[RightHandThumb3]
220	-26.52600098	-15.31399918	15.31399918	-14.47830296	-6.743862152	-11.36570263	1.0
221	-26.52600098	-15.31399918	15.31399918	-14.47830296	-6.743862152	-11.36570263	1.0
222	-26.52600098	-15.31399918	15.31399918	-14.47830296	-6.743862152	-11.36570263	1.0
223	-26.52600098	-15.31399918	15.31399918	-14.47830296	-6.743862152	-11.36570263	1.0
[RightHandThumb4]
220	-19.54599953	-11.28499985	11.28499985	0	0	0	1.0
221	-19.54599953	-11.28499985	11.28499985	0	0	0	1.0
222	-19.54599953	-11.28499985	11.28499985	0	0	0	1.0
223	-19.54599953	-11.28499985	11.28499985	0	0	0	1.0
[LeftUpLeg]
220	82.07800293	-67.51699829	-15.99599934	-7.963101387	16.20813942	7.578210831	1.0
221	82.07800293	-67.51699829	-15.99599934	-7.975450516	16.2009201	7.575379848	1.0
222	82.07800293	-67.51699829	-15.99599934	-7.974322319	16.1923027	7.574790001	1.0
223	82.07800293	-67.51699829	-15.99599934	-7.968921185	16.18198013	7.57601738	1.0
[LeftLeg]
220	0	-443.7049866	2.845999956	11.75551033	1.327111363	4.584871769	1.0
221	0	-443.7049866	2.845999956	11.77476501	1.343128443	4.579965115	1.0
222	0	-443.7049866	2.845999956	11.78478146	1.346732259	4.576616287	1.0
223	0	-443.7049866	2.845999956	11.79418659	1.337636352	4.573877811	1.0
[LeftFoot]
220	0	-444.2789917	-29.8219986	1.521344423	0.6866688728	-7.178827286	1.0
221	0	-444.2789917	-29.8219986	1.518865943	0.6848110557	-7.163199902	1.0
222	0	-444.2789917	-29.8219986	1.514103532	0.6839418411	-7.154249191	1.0
223	0	-444.2789917	-29.8219986	1.508634925	0.6834295988	-7.149255276	1.0
[LeftToeBase]
220	0	-87.28699493	107.1060028	-4.904058933	-3.154472324e-06	-1.154868755e-06	1.0
221	0	-87.28699493	107.1060028	-4.912230015	-5.784898349e-06	-2.642862e-07	1.0
222	0	-87.28699493	107.1060028	-4.906888485	-2.582358547e-06	4.514997158e-07	1.0
223	0	-87.28699493	107.1060028	-4.905319214	-7.436814485e-06	1.933336762e-06	1.0
[RightUpLeg]
220	-82.07800293	-67.51699829	-15.99599934	-0.0788481608	-10.49515724	3.244514704	1.0
221	-82.07800293	-67.51699829	-15.99599934	-0.07795765996	-10.49788284	3.236798525	1.0
222	-82.07800293	-67.51699829	-15.99599934	-0.0636465624	-10.50042152	3.230222702	1.0
223	-82.07800293	-67.51699829	-15.99599934	-0.03959718719	-10.50539684	3.225133181	1.0
[RightLeg]
220	0	-443.7049866	2.861999989	8.254898071	-9.199065208	-4.606757641	1.0
221	0	-443.7049866	2.861999989	8.24450016	-9.199907303	-4.601867199	1.0
222	0	-443.7049866	2.861999989	8.227539063	-9.201501846	-4.597492218	1.0
223	0	-443.7049866	2.861999989	8.203104973	-9.201836586	-4.591679573	1.0
[RightFoot]
220	0	-444.2770081	-29.83799934	-3.854046106	-1.170705557	3.251893997	1.0
221	0	-444.2770081	-29.83799934	-3.832039595	-1.168083429	3.257866383	1.0
222	0	-444.2770081	-29.83799934	-3.810991764	-1.171842217	3.263925314	1.0
223	0	-444.2770081	-29.83799934	-3.789618015	-1.183554649	3.269457817	1.0
[RightToeBase]
220	0	-87.28699493	107.1060028	-7.106058598	1.491738715e-07	7.914119919e-07	1.0
221	0	-87.28699493	107.1060028	-7.098854065	-7.620322776e-06	-6.591061208e-08	1.0
222	0	-87.28699493	107.1060028	-7.092432022	-5.250313961e-07	-4.500778061e-07	1.0
223	0	-87.28699493	107.1060028	-7.090377808	7.816061952e-06	-5.094971698e-07	1.0
[EndOfFile]
